<?xml version="1.0" encoding="utf-8"?>
<!-- Generator: Adobe Illustrator 28.0.0, SVG Export Plug-In . SVG Version: 6.00 Build 0)  -->
<svg version="1.1" id="Laag_1" xmlns="http://www.w3.org/2000/svg" xmlns:xlink="http://www.w3.org/1999/xlink" x="0px" y="0px"
	 viewBox="0 0 56.7 56.7" style="enable-background:new 0 0 56.7 56.7;" xml:space="preserve">
<style type="text/css">
	.st0{fill:#111111;}
	.st1{fill:none;stroke:#111111;stroke-width:2.8346;stroke-miterlimit:10;}
</style>
<g>
	<path class="st0" d="M49.1,13.1c1.1,0,2,0.9,2,2v26.6c0,1.1-0.9,2-2,2H7.6c-1.1,0-2-0.9-2-2V15.1c0-1.1,0.9-2,2-2H49.1 M49.1,10.2
		H7.6c-2.7,0-4.8,2.2-4.8,4.8v26.6c0,2.7,2.2,4.8,4.8,4.8h41.5c2.7,0,4.8-2.2,4.8-4.8V15.1C53.9,12.4,51.8,10.2,49.1,10.2L49.1,10.2
		z"/>
</g>
<path class="st1" d="M5.2,12.8l19.3,17.3c2.2,2,5.6,2,7.8,0l19.3-17.3"/>
</svg>
