<?xml version="1.0" encoding="utf-8"?>
<!-- Generator: Adobe Illustrator 28.0.0, SVG Export Plug-In . SVG Version: 6.00 Build 0)  -->
<svg version="1.1" id="Laag_1" xmlns="http://www.w3.org/2000/svg" xmlns:xlink="http://www.w3.org/1999/xlink" x="0px" y="0px"
	 viewBox="0 0 56.7 56.7" style="enable-background:new 0 0 56.7 56.7;" xml:space="preserve">
<style type="text/css">
	.st0{fill:#111111;}
</style>
<g>
	<path class="st0" d="M42.1,5.6c4.9,0,9,4,9,9v27.5c0,4.9-4,9-9,9H14.6c-4.9,0-9-4-9-9V14.6c0-4.9,4-9,9-9H42.1 M42.1,2.8H14.6
		C8.1,2.8,2.8,8.1,2.8,14.6v27.5c0,6.5,5.3,11.8,11.8,11.8h27.5c6.5,0,11.8-5.3,11.8-11.8V14.6C53.9,8.1,48.6,2.8,42.1,2.8L42.1,2.8
		z"/>
</g>
<g>
	<path class="st0" d="M28.3,19.2c5,0,9.1,4.1,9.1,9.1s-4.1,9.1-9.1,9.1s-9.1-4.1-9.1-9.1S23.3,19.2,28.3,19.2 M28.3,16.4
		c-6.6,0-12,5.4-12,12c0,6.6,5.4,12,12,12c6.6,0,12-5.4,12-12C40.3,21.7,34.9,16.4,28.3,16.4L28.3,16.4z"/>
</g>
<circle class="st0" cx="43" cy="13.7" r="2.2"/>
</svg>
