<?xml version="1.0" encoding="utf-8"?>
<!-- Generator: Adobe Illustrator 28.0.0, SVG Export Plug-In . SVG Version: 6.00 Build 0)  -->
<svg version="1.1" id="Laag_1" xmlns="http://www.w3.org/2000/svg" xmlns:xlink="http://www.w3.org/1999/xlink" x="0px" y="0px"
	 viewBox="0 0 56.7 56.7" style="enable-background:new 0 0 56.7 56.7;" xml:space="preserve">
<style type="text/css">
	.st0{fill:#111111;}
</style>
<g>
	<path class="st0" d="M31.2,3.7c1.4,0,2.6,0.9,3,2.2l11.9,37.2c0.3,0.8,0.2,1.7-0.2,2.4c-0.4,0.8-1.1,1.3-1.9,1.6l-17.6,5.7
		c-0.3,0.1-0.6,0.2-1,0.2c-1.4,0-2.6-0.9-3-2.2L10.5,13.5c-0.3-0.8-0.2-1.7,0.2-2.4c0.4-0.8,1.1-1.3,1.9-1.6l17.6-5.7
		C30.5,3.8,30.9,3.7,31.2,3.7 M31.2,0.9c-0.6,0-1.2,0.1-1.8,0.3L11.7,6.8c-3.2,1-4.9,4.4-3.9,7.6l11.9,37.2c0.8,2.6,3.2,4.2,5.7,4.2
		c0.6,0,1.2-0.1,1.8-0.3L45,49.9c3.2-1,4.9-4.4,3.9-7.6L36.9,5.1C36.1,2.5,33.7,0.9,31.2,0.9L31.2,0.9z"/>
</g>
<circle class="st0" cx="30.5" cy="7.7" r="2.2"/>
</svg>
